<?xml version="1.0" encoding="UTF-8" standalone="no"?>
<!DOCTYPE svg PUBLIC "-//W3C//DTD SVG 1.1//EN" "http://www.w3.org/Graphics/SVG/1.1/DTD/svg11.dtd">
<svg version="1.1" xmlns="http://www.w3.org/2000/svg" xmlns:xlink="http://www.w3.org/1999/xlink" preserveAspectRatio="xMidYMid meet" viewBox="0 0 500 500" width="500" height="500"><defs><path d="" id="a6yJ3qnp2q"></path><path d="" id="ddNHn1jKi"></path><path d="M6452.37 535.22C6452.37 3657.72 3917.3 6192.79 794.8 6192.79C-2327.7 6192.79 -4862.77 3657.72 -4862.77 535.22C-4862.77 -2587.28 -2327.7 -5122.36 794.8 -5122.36C3917.3 -5122.36 6452.37 -2587.28 6452.37 535.22Z" id="a7IKdCtQmO"></path><path d="M500 250C500 387.98 387.98 500 250 500C112.02 500 0 387.98 0 250C0 112.02 112.02 0 250 0C387.98 0 500 112.02 500 250Z" id="a3eExHinLV"></path><clipPath id="clipcG9NskRCm"><use xlink:href="#a3eExHinLV" opacity="1"></use></clipPath></defs><g><g><g><g><use xlink:href="#a6yJ3qnp2q" opacity="1" fill-opacity="0" stroke="#000000" stroke-width="1" stroke-opacity="1"></use></g></g><g><g><use xlink:href="#ddNHn1jKi" opacity="1" fill-opacity="0" stroke="#000000" stroke-width="1" stroke-opacity="1"></use></g></g><g><use xlink:href="#a7IKdCtQmO" opacity="1" fill="#fdfdfd" fill-opacity="0"></use><g><use xlink:href="#a7IKdCtQmO" opacity="1" fill-opacity="0" stroke="#3581fc" stroke-width="20" stroke-opacity="1"></use></g><g><filter id="shadow8364820" x="-4871.77" y="-5131.36" width="11334.15" height="11334.15" filterUnits="userSpaceOnUse" primitiveUnits="userSpaceOnUse"><feFlood></feFlood><feComposite in2="SourceAlpha" operator="out"></feComposite><feGaussianBlur stdDeviation="1"></feGaussianBlur><feOffset dx="1" dy="1" result="afterOffset"></feOffset><feFlood flood-color="#ffffff" flood-opacity="0.8"></feFlood><feComposite in2="afterOffset" operator="in"></feComposite><feMorphology operator="dilate" radius="1"></feMorphology><feComposite in2="SourceAlpha" operator="in"></feComposite></filter><path d="M6452.37 535.22C6452.37 3657.72 3917.3 6192.79 794.8 6192.79C-2327.7 6192.79 -4862.77 3657.72 -4862.77 535.22C-4862.77 -2587.28 -2327.7 -5122.36 794.8 -5122.36C3917.3 -5122.36 6452.37 -2587.28 6452.37 535.22Z" id="d1A9vxzuHB" fill="white" fill-opacity="1" filter="url(#shadow8364820)"></path></g></g><g><use xlink:href="#a3eExHinLV" opacity="1" fill="#ffffff" fill-opacity="0"></use><g clip-path="url(#clipcG9NskRCm)"><use xlink:href="#a3eExHinLV" opacity="1" fill-opacity="0" stroke="#3581fc" stroke-width="30" stroke-opacity="1"></use></g><g><filter id="shadow12146233" x="-23" y="-23" width="546" height="561" filterUnits="userSpaceOnUse" primitiveUnits="userSpaceOnUse"><feFlood></feFlood><feComposite in2="SourceAlpha" operator="out"></feComposite><feGaussianBlur stdDeviation="1"></feGaussianBlur><feOffset dx="0" dy="-15" result="afterOffset"></feOffset><feFlood flood-color="#ffffff" flood-opacity="0.9"></feFlood><feComposite in2="afterOffset" operator="in"></feComposite><feMorphology operator="dilate" radius="1"></feMorphology><feComposite in2="SourceAlpha" operator="in"></feComposite></filter><path d="M500 250C500 387.98 387.98 500 250 500C112.02 500 0 387.98 0 250C0 112.02 112.02 0 250 0C387.98 0 500 112.02 500 250Z" id="aWE1OPAUI" fill="white" fill-opacity="1" filter="url(#shadow12146233)"></path></g></g></g></g></svg>